<svg data-name="レイヤー 1" xmlns="http://www.w3.org/2000/svg" viewBox="0 0 155.63 41.89"><path d="M-.04 1.21h8.31v32.47h19.77v7.1H-.04zm64.12 36.07q-4.48 4.62-13 4.62t-13-4.62q-6-5.67-6-16.33 0-10.87 6-16.33Q42.57 0 51.08 0t13 4.62q6 5.46 6 16.33-.01 10.67-6 16.33zm-5.17-6q2.88-3.63 2.89-10.31t-2.84-10.32a9.44 9.44 0 00-7.8-3.64 9.55 9.55 0 00-7.84 3.63q-2.94 3.62-2.93 10.31t2.93 10.31a9.55 9.55 0 007.84 3.63 9.46 9.46 0 007.8-3.63zm44.05-17.72a7.73 7.73 0 00-4.59-5.66 11.28 11.28 0 00-4.54-.89 9.83 9.83 0 00-7.85 3.61q-3.02 3.6-3.02 10.84t3.3 10.32a11 11 0 007.57 3 9.86 9.86 0 006.83-2.39 10.3 10.3 0 003.3-6.23h-9.19v-6.61h16.49v21.23h-5.47l-.84-5a18.79 18.79 0 01-4.29 4 15.16 15.16 0 01-8.06 2 16.75 16.75 0 01-12.89-5.45q-5.23-5.48-5.24-15t5.29-15.4q5.3-5.81 14-5.8 7.54 0 12.13 3.83a14.24 14.24 0 015.25 9.54zm46.68 23.72q-4.49 4.62-13 4.62t-13-4.62q-6-5.67-6-16.33 0-10.87 6-16.33 4.49-4.62 13-4.62t13 4.62q6 5.46 6 16.33-.01 10.67-6 16.33zm-5.17-6q2.88-3.63 2.89-10.31t-2.89-10.3a9.41 9.41 0 00-7.8-3.64 9.55 9.55 0 00-7.84 3.63q-2.93 3.62-2.93 10.31t2.93 10.31a9.55 9.55 0 007.84 3.63 9.43 9.43 0 007.8-3.65z"/></svg>