<svg id="レイヤー_1" data-name="レイヤー 1" xmlns="http://www.w3.org/2000/svg" viewBox="0 0 155.63 41.89"><defs><style>.cls-1{isolation:isolate;}</style></defs><g class="cls-1"><path d="M1,6.43H9.31V38.9H29.08V46H1Z" transform="translate(-1.04 -5.22)"/><path d="M65.12,42.5q-4.48,4.62-13,4.62t-13-4.62q-6-5.67-6-16.33,0-10.87,6-16.33,4.49-4.62,13-4.62t13,4.62q6,5.46,6,16.33Q71.11,36.84,65.12,42.5Zm-5.17-6q2.88-3.63,2.89-10.31T60,15.87a9.44,9.44,0,0,0-7.8-3.64,9.55,9.55,0,0,0-7.84,3.63q-2.94,3.62-2.93,10.31t2.93,10.31a9.55,9.55,0,0,0,7.84,3.63A9.46,9.46,0,0,0,60,36.48Z" transform="translate(-1.04 -5.22)"/><path d="M104,18.78a7.73,7.73,0,0,0-4.59-5.66,11.28,11.28,0,0,0-4.54-.89,9.83,9.83,0,0,0-7.85,3.61Q84,19.44,84,26.68T87.3,37a11,11,0,0,0,7.57,3,9.86,9.86,0,0,0,6.83-2.39A10.3,10.3,0,0,0,105,31.38H95.81V24.77H112.3V46h-5.47l-.84-5a18.79,18.79,0,0,1-4.29,4,15.16,15.16,0,0,1-8.06,2,16.75,16.75,0,0,1-12.89-5.45q-5.23-5.48-5.24-15t5.29-15.4q5.3-5.81,14-5.8,7.54,0,12.13,3.83a14.24,14.24,0,0,1,5.25,9.54Z" transform="translate(-1.04 -5.22)"/><path d="M150.68,42.5q-4.49,4.62-13,4.62t-13-4.62q-6-5.67-6-16.33,0-10.87,6-16.33,4.49-4.62,13-4.62t13,4.62q6,5.46,6,16.33Q156.67,36.84,150.68,42.5Zm-5.17-6q2.88-3.63,2.89-10.31t-2.89-10.3a9.41,9.41,0,0,0-7.8-3.64,9.55,9.55,0,0,0-7.84,3.63q-2.93,3.62-2.93,10.31t2.93,10.31a9.55,9.55,0,0,0,7.84,3.63A9.43,9.43,0,0,0,145.51,36.48Z" transform="translate(-1.04 -5.22)"/></g></svg>